<?xml version="1.0" encoding="UTF-8" standalone="no"?>
<!-- Generator: Adobe Illustrator 15.0.2, SVG Export Plug-In . SVG Version: 6.00 Build 0)  -->

<svg
   version="1.1"
   id="Layer_1"
   x="0px"
   y="0px"
   width="430"
   height="60"
   viewBox="0 0 430.00001 60.000004"
   enable-background="new 0 0 363 227"
   xml:space="preserve"
   inkscape:version="1.2.1 (9c6d41e410, 2022-07-14)"
   sodipodi:docname="logo-with-text.svg"
   inkscape:export-filename="logo-with-text.png"
   inkscape:export-xdpi="223.25595"
   inkscape:export-ydpi="223.25595"
   xmlns:inkscape="http://www.inkscape.org/namespaces/inkscape"
   xmlns:sodipodi="http://sodipodi.sourceforge.net/DTD/sodipodi-0.dtd"
   xmlns="http://www.w3.org/2000/svg"
   xmlns:svg="http://www.w3.org/2000/svg"
   xmlns:rdf="http://www.w3.org/1999/02/22-rdf-syntax-ns#"
   xmlns:cc="http://creativecommons.org/ns#"
   xmlns:dc="http://purl.org/dc/elements/1.1/"><metadata
   id="metadata3108"><rdf:RDF><cc:Work
       rdf:about=""><dc:format>image/svg+xml</dc:format><dc:type
         rdf:resource="http://purl.org/dc/dcmitype/StillImage" /></cc:Work></rdf:RDF></metadata><defs
   id="defs3106" /><sodipodi:namedview
   pagecolor="#ffffff"
   bordercolor="#666666"
   borderopacity="1"
   objecttolerance="10"
   gridtolerance="10"
   guidetolerance="10"
   inkscape:pageopacity="0"
   inkscape:pageshadow="2"
   inkscape:window-width="1920"
   inkscape:window-height="1177"
   id="namedview3104"
   showgrid="false"
   fit-margin-top="0"
   fit-margin-left="0"
   fit-margin-right="0"
   fit-margin-bottom="0"
   inkscape:zoom="3.355814"
   inkscape:cx="210.67914"
   inkscape:cy="30.09702"
   inkscape:window-x="-8"
   inkscape:window-y="-8"
   inkscape:window-maximized="1"
   inkscape:current-layer="Layer_1"
   showguides="true"
   inkscape:guide-bbox="true"
   units="mm"
   inkscape:showpageshadow="2"
   inkscape:pagecheckerboard="0"
   inkscape:deskcolor="#d1d1d1" />























<g
   aria-label="Klarschiff"
   id="text502"
   style="font-weight:bold;font-size:59.9969px;line-height:1.25;font-family:'PT Sans';-inkscape-font-specification:'PT Sans Bold';letter-spacing:0px;word-spacing:0px;stroke-width:1.60708"
   transform="translate(-26.146204,-0.0297521)"><path
     d="M 36.525668,32.999598 H 34.36578 V 50.938671 H 26.146204 V 8.9408421 H 34.36578 V 27.539881 l 1.9199,-0.839957 11.579402,-17.7590819 h 9.359516 L 44.985231,26.57993 l -3.239833,2.279882 3.359826,2.339879 13.979278,19.73898 H 48.945026 Z"
     id="path652" /><path
     d="m 71.203926,40.859192 q 0,2.099892 0.539972,3.059842 0.539972,0.95995 1.73991,0.95995 0.719963,0 1.379929,-0.119993 0.719963,-0.119994 1.73991,-0.539973 l 0.839956,6.119684 q -0.95995,0.479975 -2.939848,0.959951 -1.979897,0.479975 -4.079789,0.479975 -3.419823,0 -5.21973,-1.55992 -1.799907,-1.619916 -1.799907,-5.279727 V 8.9408421 h 7.799597 z"
     id="path654" /><path
     d="m 80.623477,22.680132 q 2.399876,-1.079944 5.699705,-1.679913 3.299829,-0.659966 6.899643,-0.659966 3.119839,0 5.219731,0.779959 2.099894,0.719963 3.299824,2.099892 1.25994,1.379929 1.73992,3.299829 0.53997,1.919901 0.53997,4.319777 0,2.639864 -0.17999,5.339724 -0.17999,2.639864 -0.23999,5.21973 0,2.579867 0.17999,5.03974 0.17999,2.399876 0.89995,4.559764 h -6.359668 l -1.259935,-4.139786 h -0.299985 q -1.199938,1.859904 -3.359826,3.239833 -2.099891,1.319931 -5.459718,1.319931 -2.099891,0 -3.779804,-0.599969 -1.679914,-0.659966 -2.879851,-1.799907 -1.199938,-1.199938 -1.859904,-2.759857 -0.659966,-1.619916 -0.659966,-3.599814 0,-2.759857 1.199938,-4.619761 1.259935,-1.919901 3.539817,-3.059842 2.339879,-1.199938 5.519714,-1.619916 3.239833,-0.479975 7.199628,-0.299985 0.419979,-3.359826 -0.479975,-4.799752 -0.899953,-1.499922 -4.019792,-1.499922 -2.339879,0 -4.979743,0.479975 -2.579866,0.479975 -4.25978,1.259935 z m 9.899488,22.318846 q 2.339879,0 3.719808,-1.019947 1.379928,-1.079944 2.039894,-2.279882 V 37.79935 q -1.859904,-0.17999 -3.599814,-0.06 -1.679913,0.119994 -2.999845,0.539972 -1.319931,0.419979 -2.099891,1.199938 -0.77996,0.77996 -0.77996,1.979898 0,1.679913 0.959951,2.639864 1.019947,0.899953 2.759857,0.899953 z"
     id="path656" /><path
     d="m 127.12109,28.259843 q -1.8599,-0.659965 -3.35982,-0.659965 -2.0999,0 -3.53982,1.139941 -1.37993,1.079944 -1.85991,2.819854 v 19.378998 h -7.79959 V 20.940222 h 6.05968 l 0.89996,3.959795 h 0.23999 q 1.01994,-2.219885 2.75985,-3.419823 1.73991,-1.199938 4.07979,-1.199938 1.55992,0 3.53982,0.659966 z"
     id="path658" /><path
     d="m 144.0402,42.659099 q 0,-1.199938 -1.01994,-1.919901 -1.01995,-0.719962 -2.51987,-1.319931 -1.49993,-0.599969 -3.29983,-1.199938 -1.79991,-0.659966 -3.29983,-1.73991 -1.49992,-1.139942 -2.51987,-2.819855 -1.01995,-1.73991 -1.01995,-4.43977 0,-4.439771 2.63986,-6.77965 2.63987,-2.339879 7.61961,-2.339879 3.41982,0 6.17968,0.719963 2.75986,0.719963 4.31978,1.619916 l -1.73991,5.639709 Q 148,27.539881 145.90011,26.939912 q -2.09989,-0.599969 -4.25978,-0.599969 -3.47982,0 -3.47982,2.69986 0,1.079944 1.01995,1.73991 1.01994,0.659966 2.51987,1.259935 1.49992,0.539972 3.29982,1.199938 1.79991,0.659966 3.29983,1.73991 1.49993,1.019947 2.51987,2.699861 1.01995,1.679913 1.01995,4.319776 0,4.559765 -2.93985,7.199628 -2.87985,2.579867 -8.69955,2.579867 -3.17983,0 -5.99969,-0.839957 -2.75985,-0.77996 -4.49976,-1.859904 l 2.15988,-5.819699 q 1.37993,0.77996 3.65981,1.559919 2.27989,0.719963 4.67976,0.719963 1.73991,0 2.75986,-0.659966 1.07994,-0.659966 1.07994,-2.219885 z"
     id="path660" /><path
     d="m 178.17849,49.078767 q -1.79991,1.319932 -4.37977,1.979898 -2.51987,0.719963 -5.21973,0.719963 -3.59982,0 -6.11969,-1.139941 -2.45987,-1.139941 -4.01979,-3.179836 -1.55992,-2.099891 -2.27988,-5.039739 -0.65997,-2.939849 -0.65997,-6.479666 0,-7.619606 3.41982,-11.699395 3.41983,-4.139786 9.95949,-4.139786 3.29983,0 5.27973,0.539972 2.03989,0.539972 3.65981,1.379929 l -1.85991,6.359671 q -1.37992,-0.659966 -2.75985,-1.019947 -1.31994,-0.359981 -3.05985,-0.359981 -3.23983,0 -4.91974,2.159888 -1.67991,2.099891 -1.67991,6.779649 0,1.919901 0.41997,3.539817 0.41998,1.619917 1.25994,2.819855 0.83996,1.199938 2.15989,1.9199 1.37993,0.659966 3.17983,0.659966 1.9799,0 3.35983,-0.479975 1.37993,-0.539972 2.45987,-1.259935 z"
     id="path662" /><path
     d="M 201.27734,50.938671 V 33.899552 q 0,-3.659811 -1.01995,-5.279727 -1.01995,-1.619916 -3.71981,-1.619916 -1.9799,0 -3.65981,1.379928 -1.61992,1.319932 -2.15989,3.419823 v 19.139011 h -7.79959 V 8.9408421 h 7.79959 V 24.300048 h 0.23999 q 1.43993,-1.919901 3.53982,-3.059842 2.09989,-1.139941 5.33972,-1.139941 2.27988,0 4.01979,0.599969 1.73991,0.599969 2.87985,1.979898 1.19994,1.379929 1.73991,3.779804 0.59997,2.33988 0.59997,5.8197 v 18.659035 z"
     id="path664" /><path
     d="m 216.27657,20.940222 h 7.7996 v 29.998449 h -7.7996 z m -1.13994,-8.459563 q 0,-1.73991 1.25993,-2.939848 1.31994,-1.2599348 3.59982,-1.2599348 2.27988,0 3.65981,1.2599348 1.43992,1.199938 1.43992,2.939848 0,1.73991 -1.43992,2.939848 -1.37993,1.139941 -3.65981,1.139941 -2.27988,0 -3.59982,-1.139941 -1.25993,-1.199938 -1.25993,-2.939848 z"
     id="path666" /><path
     d="m 228.99585,20.940222 h 4.13978 v -1.679913 q 0,-5.699706 2.39988,-8.219575 2.39987,-2.5798671 6.95964,-2.5798671 4.79975,0 7.97959,1.139941 l -1.49993,6.2396771 q -1.37993,-0.479975 -2.45987,-0.599969 -1.01995,-0.17999 -2.15989,-0.17999 -1.19994,0 -1.9199,0.359981 -0.65996,0.359982 -1.01995,1.139941 -0.29998,0.719963 -0.41997,1.859904 -0.06,1.079944 -0.06,2.51987 h 6.59966 v 6.599659 h -6.59966 v 23.39879 h -7.7996 v -23.39879 h -4.13978 z"
     id="path668" /><path
     d="m 248.2548,20.940222 h 4.13979 v -1.679913 q 0,-5.699706 2.39988,-8.219575 2.39987,-2.5798671 6.95964,-2.5798671 4.79975,0 7.97958,1.139941 l -1.49992,6.2396771 q -1.37993,-0.479975 -2.45987,-0.599969 -1.01995,-0.17999 -2.15989,-0.17999 -1.19994,0 -1.9199,0.359981 -0.65997,0.359982 -1.01995,1.139941 -0.29998,0.719963 -0.41998,1.859904 -0.06,1.079944 -0.06,2.51987 h 6.59965 v 6.599659 h -6.59965 v 23.39879 h -7.7996 v -23.39879 h -4.13979 z"
     id="path670" /></g><g
   aria-label="HRO"
   id="text502-2"
   style="font-weight:bold;font-size:37.3333px;line-height:1.25;font-family:'PT Sans';-inkscape-font-specification:'PT Sans Bold';letter-spacing:0px;word-spacing:0px"
   transform="matrix(1.6070662,0,0,1.6070662,176.15739,161.28316)"><path
     d="m 105.72462,-79.563238 h -9.557322 v 10.938658 h -5.114663 v -26.133311 h 5.114663 v 10.63999 h 9.557322 v -10.63999 h 5.11467 v 26.133311 h -5.11467 z"
     id="path645" /><path
     d="m 115.35665,-94.496558 q 0.85867,-0.149334 1.82933,-0.261333 1.008,-0.149334 1.97867,-0.224 1.008,-0.07467 1.94133,-0.112 0.93333,-0.03733 1.71733,-0.03733 1.82933,0 3.584,0.335999 1.792,0.336 3.17333,1.157333 1.41866,0.821332 2.24,2.277331 0.85866,1.418665 0.85866,3.583997 0,3.210664 -1.49333,5.226662 -1.49333,2.015998 -3.99466,2.799998 l 1.82933,1.157332 5.97333,9.967992 h -5.89866 l -5.936,-10.229325 -2.688,-0.485333 v 10.714658 h -5.11466 z m 7.83999,3.919996 q -0.78399,0 -1.56799,0.03733 -0.74667,0.03733 -1.15734,0.149333 v 7.57866 h 2.16534 q 2.12799,0 3.39733,-0.970666 1.26933,-0.970666 1.26933,-3.210664 0,-1.679998 -1.04533,-2.613331 -1.04534,-0.970666 -3.06134,-0.970666 z"
     id="path647" /><path
     d="m 135.7779,-81.691236 q 0,-6.533328 2.87467,-10.042658 2.87466,-3.546664 8.21332,-3.546664 2.8,0 4.89067,0.970666 2.09066,0.970666 3.47199,2.762664 1.38134,1.791999 2.05333,4.29333 0.672,2.501331 0.672,5.562662 0,6.533328 -2.91199,10.079991 -2.87467,3.509331 -8.176,3.509331 -2.83733,0 -4.92799,-0.970666 -2.09067,-0.970666 -3.472,-2.762664 -1.344,-1.791999 -2.016,-4.29333 -0.672,-2.501331 -0.672,-5.562662 z m 5.376,0 q 0,1.978665 0.336,3.658664 0.336,1.642665 1.008,2.837331 0.70933,1.194665 1.792,1.866665 1.08266,0.671999 2.57599,0.671999 2.72533,0 4.21867,-2.127998 1.49333,-2.127998 1.49333,-6.906661 0,-1.903998 -0.336,-3.546664 -0.29867,-1.642665 -0.97067,-2.874664 -0.672,-1.231999 -1.75466,-1.903998 -1.08267,-0.709333 -2.65067,-0.709333 -2.72533,0 -4.21866,2.202665 -1.49333,2.165331 -1.49333,6.831994 z"
     id="path649" /></g><g
   id="g4567"
   transform="matrix(2.2364451,0,0,2.1967147,218.51707,-29.162055)"><path
     id="path3718"
     style="fill:#006cb7;fill-opacity:1;fill-rule:nonzero;stroke:none;stroke-width:0.110029"
     d="m 37.011719,13.294922 c -0.176662,0.0071 -0.353357,0.0265 -0.529297,0.05859 -1.748135,0.318849 -3.005988,1.764028 -3.201172,3.443359 -0.08161,0.967349 -0.525393,2.151788 -1.144531,2.865234 l -1.171875,1.371094 c -0.07275,0.06064 -0.140237,0.127611 -0.201172,0.205078 l -2.998047,3.533203 1.859375,2.019532 3.294922,-3.855469 c 0.03308,-0.04205 0.06438,-0.08636 0.0918,-0.130859 0.845478,-0.976827 1.039706,-1.151226 1.826172,-1.498047 0.735557,-0.323944 2.216886,-0.153446 2.767578,-0.216797 1.916222,0.02729 2.987311,-1.598027 3.246093,-2.476563 l -3.152343,0.576172 -1.890625,-1.685547 1.214844,-2.296875 3.101562,-0.574219 c -0.659825,-0.844595 -1.876652,-1.387421 -3.113281,-1.33789 z m -10.898438,13.414062 -3.607422,4.220704 c -0.0334,0.04246 -0.06026,0.08591 -0.08789,0.130859 -0.84501,0.976263 -1.041824,1.151298 -1.828125,1.498047 -0.735557,0.323943 -2.216887,0.153445 -2.767578,0.216797 -1.916222,-0.0273 -2.987311,1.596076 -3.246094,2.474609 l 3.152344,-0.574219 1.890625,1.683594 -1.212891,2.298828 -3.103516,0.574219 c 0.754086,0.965252 2.237012,1.534066 3.644532,1.277344 1.748135,-0.318851 3.005988,-1.762072 3.201172,-3.441407 0.08161,-0.967349 0.525392,-2.151787 1.144531,-2.865234 l 1.169922,-1.371094 c 0.07275,-0.06064 0.142191,-0.127609 0.203125,-0.205078 l 3.304687,-3.896484 z" /><g
     id="g4071"
     transform="matrix(0.04569978,-0.04203034,0.04203034,0.04569978,-6.9303608,23.327849)"><path
       d="m 304.38529,541.56548 h 141.65506 c 5.38689,0 9.75673,-4.31064 9.75673,-9.62322 0,-5.31258 -4.37454,-9.6232 -9.75673,-9.6232 l -58.53766,-0.0122 0.21962,-382.0064 c 0,-5.70082 -6.50781,-10.30168 -12.28859,-10.30168 -5.78534,0 -12.2888,4.62513 -12.292,10.32595 l -0.21462,382.0064 -58.53858,-0.0121 c -5.38688,-10e-4 -9.76587,4.31062 -9.76587,9.6232 0,5.30819 4.38368,9.62322 9.76587,9.62322 z"
       id="path3093"
       style="fill:#d81920;fill-opacity:1;stroke-width:1.16405"
       sodipodi:nodetypes="csssccsscsscc" /><path
       d="M 456.88121,548.9731 H 295.89418 L 260.383,617.17924 h 229.65373 z"
       id="path3095"
       style="fill:#d81920;fill-opacity:1;stroke-width:1.14325"
       sodipodi:nodetypes="ccccc" /></g></g></svg>
