<?xml version="1.0" encoding="UTF-8" standalone="no"?>
<!-- Generator: Adobe Illustrator 15.0.2, SVG Export Plug-In . SVG Version: 6.00 Build 0)  -->

<svg
   xmlns:dc="http://purl.org/dc/elements/1.1/"
   xmlns:cc="http://creativecommons.org/ns#"
   xmlns:rdf="http://www.w3.org/1999/02/22-rdf-syntax-ns#"
   xmlns:svg="http://www.w3.org/2000/svg"
   xmlns="http://www.w3.org/2000/svg"
   xmlns:sodipodi="http://sodipodi.sourceforge.net/DTD/sodipodi-0.dtd"
   xmlns:inkscape="http://www.inkscape.org/namespaces/inkscape"
   version="1.1"
   id="Layer_1"
   x="0px"
   y="0px"
   width="469.99997"
   height="60.237961"
   viewBox="0 0 469.99998 60.237965"
   enable-background="new 0 0 363 227"
   xml:space="preserve"
   inkscape:version="0.48.1 "
   sodipodi:docname="logo-with-text.svg"><metadata
   id="metadata3108"><rdf:RDF><cc:Work
       rdf:about=""><dc:format>image/svg+xml</dc:format><dc:type
         rdf:resource="http://purl.org/dc/dcmitype/StillImage" /><dc:title /></cc:Work></rdf:RDF></metadata><defs
   id="defs3106" /><sodipodi:namedview
   pagecolor="#ffffff"
   bordercolor="#666666"
   borderopacity="1"
   objecttolerance="10"
   gridtolerance="10"
   guidetolerance="10"
   inkscape:pageopacity="0"
   inkscape:pageshadow="2"
   inkscape:window-width="1600"
   inkscape:window-height="1153"
   id="namedview3104"
   showgrid="false"
   fit-margin-top="0"
   fit-margin-left="0"
   fit-margin-right="0"
   fit-margin-bottom="0"
   inkscape:zoom="3.170213"
   inkscape:cx="234.99998"
   inkscape:cy="30.11898"
   inkscape:window-x="-4"
   inkscape:window-y="-4"
   inkscape:window-maximized="1"
   inkscape:current-layer="Layer_1"
   showguides="true"
   inkscape:guide-bbox="true"
   units="mm" />























<g
   id="g3084"
   transform="matrix(1.1118243,0,0,1.1118243,145.43789,-345.59909)"><path
     d="m -98.995135,355.88263 -10.780485,0 -10.18538,-13.64154 -2.05997,2.49486 0,11.14668 -8.78918,0 0,-34.08097 8.78918,0 0,15.42686 12.17669,-15.42686 10.185381,0 -13.321111,15.77016 z"
     id="path4152-7"
     inkscape:connector-curvature="0"
     style="font-size:40px;font-style:normal;font-variant:normal;font-weight:bold;font-stretch:normal;line-height:125%;letter-spacing:0px;word-spacing:0px;fill:#000000;fill-opacity:1;stroke:none;font-family:Verdana;-inkscape-font-specification:Verdana Bold" /><path
     d="m -86.864225,355.88263 -8.239861,0 0,-35.6145 8.239861,0 z"
     id="path4154-6"
     inkscape:connector-curvature="0"
     style="font-size:40px;font-style:normal;font-variant:normal;font-weight:bold;font-stretch:normal;line-height:125%;letter-spacing:0px;word-spacing:0px;fill:#000000;fill-opacity:1;stroke:none;font-family:Verdana;-inkscape-font-specification:Verdana Bold" /><path
     d="m -63.517947,349.1763 0,-5.35589 c -1.113927,0.0916 -2.319388,0.21743 -3.616384,0.37765 -1.297032,0.16017 -2.281235,0.34715 -2.952617,0.56076 -0.824,0.25949 -1.453434,0.63709 -1.888302,1.13298 -0.434892,0.49594 -0.652333,1.14827 -0.652325,1.95697 -8e-6,0.53407 0.04575,0.96896 0.137348,1.30465 0.09154,0.3357 0.320428,0.65615 0.686652,0.96133 0.350949,0.30518 0.770569,0.53024 1.258871,0.6752 0.488274,0.14495 1.251224,0.21743 2.28885,0.21743 0.82397,0 1.6594,-0.16791 2.506291,-0.50355 0.846856,-0.33567 1.590732,-0.77819 2.231629,-1.32753 z m 0,3.98261 c -0.442531,0.33569 -0.991855,0.74007 -1.647973,1.21309 -0.656156,0.47304 -1.274143,0.84688 -1.853971,1.12154 -0.808741,0.36621 -1.647986,0.63706 -2.517733,0.81253 -0.869777,0.17538 -1.823465,0.26335 -2.861063,0.26335 -2.441452,0 -4.486155,-0.75531 -6.134122,-2.26595 -1.647975,-1.51063 -2.471961,-3.44091 -2.471958,-5.79078 -3e-6,-1.87686 0.419619,-3.4104 1.258867,-4.60061 0.839243,-1.19018 2.029442,-2.12859 3.570607,-2.81528 1.525892,-0.68663 3.418008,-1.17491 5.676349,-1.46485 2.258319,-0.28993 4.600573,-0.50355 7.026774,-0.6409 l 0,-0.1372 c -2e-5,-1.41907 -0.579862,-2.39948 -1.739527,-2.94118 -1.159701,-0.54167 -2.868709,-0.81252 -5.127027,-0.81255 -1.358063,3e-5 -2.807665,0.24039 -4.348816,0.72098 -1.541165,0.48071 -2.647443,0.85073 -3.318833,1.1101 l -0.755321,0 0,-6.20277 c 0.869758,-0.22878 2.28503,-0.49971 4.245818,-0.81255 1.960773,-0.31279 3.925367,-0.4692 5.893792,-0.46923 4.684495,3e-5 8.068176,0.72104 10.151052,2.16299 2.082826,1.44199 3.124253,3.70412 3.124281,6.78644 l 0,17.4868 -8.171196,0 z"
     id="path4156-1"
     inkscape:connector-curvature="0"
     style="font-size:40px;font-style:normal;font-variant:normal;font-weight:bold;font-stretch:normal;line-height:125%;letter-spacing:0px;word-spacing:0px;fill:#000000;fill-opacity:1;stroke:none;font-family:Verdana;-inkscape-font-specification:Verdana Bold" /><path
     d="m -29.139414,338.02959 -0.732432,0 c -0.350979,-0.12199 -0.915562,-0.21356 -1.693746,-0.27469 -0.778229,-0.0611 -1.426742,-0.0916 -1.945526,-0.0916 -1.174963,0 -2.212567,0.0764 -3.112837,0.22878 -0.900295,0.1527 -1.869239,0.41201 -2.906843,0.77819 l 0,17.21216 -8.239861,0 0,-25.70378 8.239861,0 0,3.7766 c 1.815811,-1.55639 3.395123,-2.59019 4.737924,-3.1014 1.342775,-0.51113 2.578757,-0.76674 3.707935,-0.76674 0.289901,0 0.617973,0.008 0.984211,0.0221 0.366194,0.0138 0.686636,0.0382 0.961314,0.0686 z"
     id="path4158-8"
     inkscape:connector-curvature="0"
     style="font-size:40px;font-style:normal;font-variant:normal;font-weight:bold;font-stretch:normal;line-height:125%;letter-spacing:0px;word-spacing:0px;fill:#000000;fill-opacity:1;stroke:none;font-family:Verdana;-inkscape-font-specification:Verdana Bold" /><path
     d="m -2.0851961,347.73433 c -2.21e-5,2.65508 -1.1902299,4.79516 -3.5706122,6.42023 -2.3804155,1.62508 -5.6382157,2.43763 -9.7733887,2.43763 -2.288856,0 -4.364089,-0.21356 -6.225673,-0.64088 -1.861607,-0.42725 -3.356989,-0.90029 -4.486152,-1.41909 l 0,-6.77501 0.755331,0 c 0.411991,0.28994 0.888832,0.60657 1.430526,0.9499 0.541684,0.34332 1.308454,0.71335 2.300295,1.11006 0.854496,0.35099 1.82344,0.65236 2.906843,0.90412 1.083378,0.25173 2.243059,0.37766 3.479052,0.37766 1.617433,0 2.81527,-0.17926 3.593487,-0.53789 0.778196,-0.35859 1.1673,-0.88884 1.167322,-1.59074 -2.2e-5,-0.62563 -0.228912,-1.07958 -0.686658,-1.36188 -0.457786,-0.28228 -1.327541,-0.55313 -2.609286,-0.81253 -0.61038,-0.13721 -1.438181,-0.28609 -2.483403,-0.44634 -1.045256,-0.16017 -1.99512,-0.35475 -2.849619,-0.58364 -2.334641,-0.61036 -4.066532,-1.56023 -5.195696,-2.84964 -1.129166,-1.28935 -1.693746,-2.89536 -1.693746,-4.81801 0,-2.47195 1.171128,-4.5281 3.513388,-6.16847 2.342248,-1.64032 5.542824,-2.46047 9.60173,-2.4605 1.922615,3e-5 3.7651342,0.19447 5.5275656,0.58366 1.7623955,0.38911 3.1395205,0.80492 4.1313751,1.24742 l 0,6.50035 -0.7095354,0 c -1.2207479,-0.83925 -2.6131291,-1.52209 -4.1771603,-2.04854 -1.5640644,-0.52641 -3.147183,-0.78962 -4.749359,-0.78965 -1.327553,3e-5 -2.445269,0.18313 -3.353169,0.54931 -0.907922,0.36626 -1.361877,0.88505 -1.361866,1.55644 -1.1e-5,0.61036 0.20598,1.07576 0.617984,1.39619 0.411991,0.32045 1.380934,0.6409 2.906843,0.96132 0.839237,0.16791 1.74333,0.3319 2.712296,0.4921 0.968919,0.16017 1.9416834,0.36241 2.9182789,0.60654 2.1667563,0.56461 3.7689572,1.45342 4.8065832,2.66651 1.0375928,1.21311 1.5564017,2.72756 1.5564238,4.54337 z"
     id="path4160-9"
     inkscape:connector-curvature="0"
     style="font-size:40px;font-style:normal;font-variant:normal;font-weight:bold;font-stretch:normal;line-height:125%;letter-spacing:0px;word-spacing:0px;fill:#000000;fill-opacity:1;stroke:none;font-family:Verdana;-inkscape-font-specification:Verdana Bold" /><path
     d="m 16.797823,356.56928 c -2.243096,0 -4.291609,-0.26695 -6.145564,-0.80107 -1.8539796,-0.53406 -3.4676163,-1.35807 -4.8409211,-2.47198 -1.3580568,-1.11388 -2.4109197,-2.51773 -3.1586108,-4.21147 -0.7477022,-1.69376 -1.1215478,-3.67743 -1.121534,-5.95101 -1.38e-5,-2.39566 0.4005406,-4.46326 1.2016437,-6.2028 0.8010949,-1.73951 1.9188086,-3.18148 3.3531576,-4.32594 1.3885638,-1.08334 2.9907618,-1.87681 4.8065946,-2.38039 1.815813,-0.50352 3.700294,-0.75528 5.653463,-0.75531 1.754766,3e-5 3.372212,0.19088 4.852357,0.57221 1.480099,0.3815 2.861044,0.87742 4.142825,1.48775 l 0,7.02678 -1.167322,0 c -0.320453,-0.27469 -0.705748,-0.59509 -1.155858,-0.96132 -0.450171,-0.36621 -1.003305,-0.7248 -1.659422,-1.07577 -0.625639,-0.33566 -1.312297,-0.61415 -2.059963,-0.83542 -0.747713,-0.22131 -1.617482,-0.33188 -2.6093,-0.33188 -2.197308,0 -3.887234,0.69811 -5.069801,2.0943 -1.182579,1.39621 -1.773868,3.29213 -1.773857,5.68779 -1.1e-5,2.47195 0.606535,4.34882 1.819642,5.63056 1.213071,1.28178 2.933527,1.92265 5.161349,1.92265 1.037593,0 1.972213,-0.1184 2.803845,-0.35478 0.831599,-0.23652 1.522066,-0.51498 2.071412,-0.83543 0.518784,-0.30518 0.976549,-0.6256 1.373305,-0.96132 0.396709,-0.33569 0.762925,-0.66375 1.098648,-0.9842 l 1.167322,0 0,7.02677 c -1.297037,0.61036 -2.651276,1.09483 -4.062715,1.45343 -1.411471,0.35857 -2.971704,0.53785 -4.680696,0.53785 z"
     id="path4162-2"
     inkscape:connector-curvature="0"
     style="font-size:40px;font-style:normal;font-variant:normal;font-weight:bold;font-stretch:normal;line-height:125%;letter-spacing:0px;word-spacing:0px;fill:#000000;fill-opacity:1;stroke:none;font-family:Verdana;-inkscape-font-specification:Verdana Bold" /><path
     d="m 56.784037,355.88263 -8.285636,0 0,-12.74888 c -2.2e-5,-1.03762 -0.05345,-2.07142 -0.160225,-3.1014 -0.106863,-1.02998 -0.289937,-1.78909 -0.549324,-2.27742 -0.305196,-0.56455 -0.751522,-0.97654 -1.33898,-1.23597 -0.587483,-0.25948 -1.407654,-0.38908 -2.460517,-0.38911 -0.747702,3e-5 -1.50684,0.122 -2.277395,0.36624 -0.770599,0.24426 -1.60603,0.63326 -2.5063,1.1673 l 0,18.21924 -8.239864,0 0,-35.6145 8.239864,0 0,12.7489 c 1.464851,-1.1444 2.872494,-2.02179 4.222935,-2.63218 1.350405,-0.61033 2.849594,-0.91551 4.497591,-0.91554 2.777111,3e-5 4.947701,0.80876 6.511779,2.42617 1.564018,1.61749 2.346045,4.03603 2.346067,7.25566 z"
     id="path4164-7"
     inkscape:connector-curvature="0"
     style="font-size:40px;font-style:normal;font-variant:normal;font-weight:bold;font-stretch:normal;line-height:125%;letter-spacing:0px;word-spacing:0px;fill:#000000;fill-opacity:1;stroke:none;font-family:Verdana;-inkscape-font-specification:Verdana Bold" /><path
     d="m 72.62289,355.88263 -8.239861,0 0,-25.70379 8.239861,0 z m 0.228886,-29.36595 -8.697627,0 0,-6.24855 8.697627,0 z"
     id="path4166-9"
     inkscape:connector-curvature="0"
     style="font-size:40px;font-style:normal;font-variant:normal;font-weight:bold;font-stretch:normal;line-height:125%;letter-spacing:0px;word-spacing:0px;fill:#000000;fill-opacity:1;stroke:none;font-family:Verdana;-inkscape-font-specification:Verdana Bold" /><path
     d="m 97.06781,326.3107 -0.617986,0 c -0.366239,-0.10678 -0.843082,-0.22877 -1.430526,-0.36623 -0.587494,-0.13721 -1.216928,-0.20582 -1.888305,-0.20609 -1.617468,3e-5 -2.71231,0.28994 -3.284508,0.86976 -0.572224,0.57987 -0.858328,1.70139 -0.858317,3.36461 l 0,0.20609 6.363007,0 0,5.58481 -6.088339,0 0,20.11898 -8.239862,0 0,-20.11898 -3.52484,0 0,-5.58481 3.52484,0 0,-0.70953 c -1.1e-5,-3.14334 0.835417,-5.50085 2.506289,-7.07256 1.670847,-1.57163 4.200024,-2.35748 7.587542,-2.35751 1.220701,3e-5 2.326976,0.0421 3.31883,0.12587 0.991819,0.0838 1.869214,0.19447 2.632175,0.33187 z"
     id="path4168-5"
     inkscape:connector-curvature="0"
     style="font-size:40px;font-style:normal;font-variant:normal;font-weight:bold;font-stretch:normal;line-height:125%;letter-spacing:0px;word-spacing:0px;fill:#000000;fill-opacity:1;stroke:none;font-family:Verdana;-inkscape-font-specification:Verdana Bold" /><path
     d="m 116.84348,326.3107 -0.61798,0 c -0.36624,-0.10678 -0.84309,-0.22877 -1.43053,-0.36623 -0.58749,-0.13721 -1.21693,-0.20582 -1.88831,-0.20609 -1.61747,3e-5 -2.7123,0.28994 -3.2845,0.86976 -0.57223,0.57987 -0.85833,1.70139 -0.85832,3.36461 l 0,0.20609 6.36301,0 0,5.58481 -6.08834,0 0,20.11898 -8.23987,0 0,-20.11898 -3.524836,0 0,-5.58481 3.524836,0 0,-0.70953 c -1e-5,-3.14334 0.83542,-5.50085 2.5063,-7.07256 1.67084,-1.57163 4.20002,-2.35748 7.58753,-2.35751 1.22071,3e-5 2.32698,0.0421 3.31884,0.12587 0.99182,0.0838 1.86921,0.19447 2.63217,0.33187 z"
     id="path4170-4"
     inkscape:connector-curvature="0"
     style="font-size:40px;font-style:normal;font-variant:normal;font-weight:bold;font-stretch:normal;line-height:125%;letter-spacing:0px;word-spacing:0px;fill:#000000;fill-opacity:1;stroke:none;font-family:Verdana;-inkscape-font-specification:Verdana Bold" /><path
     d="m 213.34229,355.88263 -8.78919,0 0,-15.01485 -12.97779,0 0,15.01485 -8.7892,0 0,-34.08097 8.7892,0 0,12.47424 12.97779,0 0,-12.47424 8.78919,0 z"
     id="path4174-1"
     inkscape:connector-curvature="0"
     style="font-size:40px;font-style:normal;font-variant:normal;font-weight:bold;font-stretch:normal;line-height:125%;letter-spacing:0px;word-spacing:0px;fill:#000000;fill-opacity:1;stroke:none;font-family:Verdana;-inkscape-font-specification:Verdana Bold" /><path
     d="m 241.1747,332.23881 c -2e-5,-0.85446 -0.17538,-1.5869 -0.52643,-2.19729 -0.35096,-0.61033 -0.95371,-1.09098 -1.8082,-1.442 -0.59512,-0.24399 -1.28938,-0.39287 -2.08284,-0.44631 -0.79349,-0.0534 -1.71667,-0.0799 -2.7695,-0.0802 l -3.18151,0 0,9.17831 2.70084,0 c 1.40382,0 2.57876,-0.0686 3.52484,-0.20609 0.94602,-0.13721 1.73948,-0.45011 2.38038,-0.93842 0.61036,-0.47301 1.05668,-0.99565 1.33898,-1.56786 0.28228,-0.57219 0.42342,-1.33896 0.42344,-2.30031 z m 13.71023,23.64382 -10.73472,0 -9.29272,-12.49712 -4.05127,0 0,12.49712 -8.74342,0 0,-34.08097 14.74021,0 c 2.01416,3e-5 3.74606,0.11453 5.1957,0.34333 1.44955,0.22905 2.80761,0.72483 4.07415,1.48775 1.28171,0.76298 2.30024,1.751 3.05561,2.96405 0.75529,1.21312 1.13295,2.73523 1.13298,4.56625 -3e-5,2.51777 -0.5837,4.5701 -1.75097,6.15702 -1.16736,1.58695 -2.8344,2.90685 -5.00114,3.95971 z"
     id="path4176-2"
     inkscape:connector-curvature="0"
     style="font-size:40px;font-style:normal;font-variant:normal;font-weight:bold;font-stretch:normal;line-height:125%;letter-spacing:0px;word-spacing:0px;fill:#000000;fill-opacity:1;stroke:none;font-family:Verdana;-inkscape-font-specification:Verdana Bold" /><path
     d="m 291.91852,338.8536 c -2e-5,5.43221 -1.55644,9.7467 -4.66923,12.94345 -3.11289,3.19676 -7.41592,4.79514 -12.90913,4.79514 -5.478,0 -9.7734,-1.59838 -12.88622,-4.79514 -3.11286,-3.19675 -4.66927,-7.51124 -4.66927,-12.94345 0,-5.47797 1.55641,-9.8077 4.66927,-12.98924 3.11282,-3.18146 7.40822,-4.77223 12.88622,-4.77226 5.4627,3e-5 9.7581,1.5908 12.88622,4.77226 3.12807,3.18154 4.69212,7.51127 4.69214,12.98924 z m -11.65023,8.62897 c 0.85446,-1.03762 1.48773,-2.26213 1.89974,-3.67362 0.41196,-1.41145 0.61794,-3.07086 0.61797,-4.97826 -3e-5,-2.04467 -0.23652,-3.78421 -0.70953,-5.21857 -0.47304,-1.43431 -1.09104,-2.59401 -1.85399,-3.47906 -0.77822,-0.91551 -1.67467,-1.57926 -2.68938,-1.99128 -1.01474,-0.41199 -2.07142,-0.61797 -3.17006,-0.61799 -1.11392,2e-5 -2.16299,0.19834 -3.14716,0.59509 -0.98423,0.39677 -1.88832,1.05291 -2.71229,1.96842 -0.76298,0.85452 -1.38476,2.03327 -1.86541,3.53627 -0.48068,1.50302 -0.72101,3.24636 -0.72101,5.23003 0,2.02945 0.23264,3.75754 0.6981,5.18424 0.46541,1.42673 1.07959,2.59024 1.84254,3.49051 0.76292,0.90027 1.65558,1.56405 2.67796,1.99128 1.02232,0.42728 2.09808,0.6409 3.22727,0.64087 1.12915,3e-5 2.20492,-0.21743 3.22729,-0.6523 1.02232,-0.43489 1.91496,-1.11009 2.67796,-2.02563 z"
     id="path4178-3"
     inkscape:connector-curvature="0"
     style="font-size:40px;font-style:normal;font-variant:normal;font-weight:bold;font-stretch:normal;line-height:125%;letter-spacing:0px;word-spacing:0px;fill:#000000;fill-opacity:1;stroke:none;font-family:Verdana;-inkscape-font-specification:Verdana Bold" /></g><g
   id="g3872"
   transform="matrix(0.47555788,0,0,0.47555788,280.445,0)"><path
     style="fill:#006cb7;fill-opacity:1;stroke:none"
     d="m 94.584577,0.0054484 c -2.198578,0.0605 -4.318448,0.63415 -6.25,1.75 -6.056895,3.49899 -8.414964,11.3992696 -6.46875,19.4999996 -1.233841,4.01519 -3.537638,8.05859 -8.249998,14.09375 l -13.8125,13.8125 10.125,10.125 14.031248,-14.03125 c 4.471916,-3.47964 7.885984,-5.63702 10.96875,-7 4.919654,2.49526 10.263003,2.8011 14.625003,0.28125 5.16235,-2.98226 7.62479,-9.13321 7.03125,-15.90625 -4.63923,2.89375 -11.20066,6.48198 -14.65625,6.21875 -2.929579,-0.28193 -5.500346,-2.48041 -7.406253,-5.875 -2.052515,-3.65572 -3.214,-6.50361 -1.65625,-9.75 0.308463,-0.64283 0.861005,-1.37221 1.53125,-2.0625 2.583333,-2.6602297 7.355063,-5.4836996 11.187503,-7.5312496 -3.4734,-2.42432 -7.335709,-3.72581 -11.000003,-3.625 z M 50.209579,58.786698 33.053329,75.942948 c -4.75869,3.72008 -8.26805,5.96613 -11.5,7.34375 -4.87838,-2.42508 -10.1877,-2.70994 -14.5000001,-0.21875 -5.15085,2.97556 -7.54729001,9.15108 -6.96875001,15.906251 3.68842001,-2.29721 8.49959001,-5.029121 12.09375011,-5.937501 0.93257,-0.23566 1.82063,-0.39789 2.53125,-0.34375 3.58866,0.27332 5.48717,2.73729 7.625,6.343751 1.98512,3.348811 2.62702,6.664211 1.40625,9.343751 -1.49996,3.126 -7.92578,7.02057 -12.75,9.59375 5.56542,3.90085 12.11886,4.85725 17.28125,1.875 6.02706,-3.48179 8.38989,-11.32426 6.5,-19.375 1.19338,-4.072271 3.47549,-8.124662 8.1875,-14.187502 l 17.375,-17.375 -10.125,-10.125 z"
     id="path3004"
     inkscape:connector-curvature="0" /><g
     id="g3852"
     transform="matrix(1.0050986,-1.0056909,1.0050986,1.0056909,-397.8811,216.33268)"
     style="fill:#d81920;fill-opacity:1"><g
       id="g3854"><rect
         style="fill:#d81920;fill-opacity:1;stroke:none"
         id="rect3856"
         width="67.717529"
         height="6.6540337"
         x="-166.44287"
         y="-309.36447"
         ry="3.3270168"
         transform="matrix(0,-1,-1,0,0,0)" /><rect
         style="fill:#d81920;fill-opacity:1;stroke:none"
         id="rect3858"
         width="44.326199"
         height="6.6540337"
         x="283.87436"
         y="168.94849"
         ry="3.3270168" /><rect
         style="fill:#d81920;fill-opacity:1;stroke:none"
         id="rect3860"
         width="18.878233"
         height="4.0702434"
         x="178.06299"
         y="-290.16876"
         ry="0"
         transform="matrix(0,1,-1,0,0,0)" /><rect
         transform="matrix(0,1,-1,0,0,0)"
         ry="0"
         y="-325.97638"
         x="178.06299"
         height="4.0702434"
         width="18.878233"
         id="rect3862"
         style="fill:#d81920;fill-opacity:1;stroke:none" /><rect
         transform="matrix(0,1,-1,0,0,0)"
         ry="0"
         y="-297.33029"
         x="178.06299"
         height="4.0702434"
         width="18.878233"
         id="rect3864"
         style="fill:#d81920;fill-opacity:1;stroke:none" /><rect
         style="fill:#d81920;fill-opacity:1;stroke:none"
         id="rect3866"
         width="18.878233"
         height="4.0702434"
         x="178.06299"
         y="-304.49182"
         ry="0"
         transform="matrix(0,1,-1,0,0,0)" /><rect
         transform="matrix(0,1,-1,0,0,0)"
         ry="0"
         y="-311.65332"
         x="178.06299"
         height="4.0702434"
         width="18.878233"
         id="rect3868"
         style="fill:#d81920;fill-opacity:1;stroke:none" /><rect
         style="fill:#d81920;fill-opacity:1;stroke:none"
         id="rect3870"
         width="18.878233"
         height="4.0702434"
         x="178.06299"
         y="-318.81488"
         ry="0"
         transform="matrix(0,1,-1,0,0,0)" /></g></g></g></svg>