<?xml version="1.0" encoding="UTF-8" standalone="no"?>
<!-- Generator: Adobe Illustrator 15.0.2, SVG Export Plug-In . SVG Version: 6.00 Build 0)  -->

<svg
   version="1.1"
   id="Layer_1"
   x="0px"
   y="0px"
   width="256"
   height="256"
   viewBox="0 0 256 256.00002"
   enable-background="new 0 0 363 227"
   xml:space="preserve"
   inkscape:version="1.2.2 (732a01da63, 2022-12-09)"
   sodipodi:docname="favicon.svg"
   inkscape:export-filename="favicon.png"
   inkscape:export-xdpi="192"
   inkscape:export-ydpi="192"
   xmlns:inkscape="http://www.inkscape.org/namespaces/inkscape"
   xmlns:sodipodi="http://sodipodi.sourceforge.net/DTD/sodipodi-0.dtd"
   xmlns="http://www.w3.org/2000/svg"
   xmlns:svg="http://www.w3.org/2000/svg"
   xmlns:rdf="http://www.w3.org/1999/02/22-rdf-syntax-ns#"
   xmlns:cc="http://creativecommons.org/ns#"
   xmlns:dc="http://purl.org/dc/elements/1.1/"><metadata
   id="metadata3108"><rdf:RDF><cc:Work
       rdf:about=""><dc:format>image/svg+xml</dc:format><dc:type
         rdf:resource="http://purl.org/dc/dcmitype/StillImage" /><dc:title /></cc:Work></rdf:RDF></metadata><defs
   id="defs3106" /><sodipodi:namedview
   pagecolor="#ffffff"
   bordercolor="#666666"
   borderopacity="1"
   objecttolerance="10"
   gridtolerance="10"
   guidetolerance="10"
   inkscape:pageopacity="0"
   inkscape:pageshadow="2"
   inkscape:window-width="3440"
   inkscape:window-height="1414"
   id="namedview3104"
   showgrid="false"
   fit-margin-top="0"
   fit-margin-left="0"
   fit-margin-right="0"
   fit-margin-bottom="0"
   inkscape:zoom="3.7460938"
   inkscape:cx="122.12721"
   inkscape:cy="128.26694"
   inkscape:window-x="-9"
   inkscape:window-y="-9"
   inkscape:window-maximized="1"
   inkscape:current-layer="Layer_1"
   showguides="true"
   inkscape:guide-bbox="true"
   units="px"
   inkscape:showpageshadow="2"
   inkscape:pagecheckerboard="0"
   inkscape:deskcolor="#d1d1d1" />























<g
   id="g2993"
   transform="matrix(2.2000219,0,0,2.2000219,-641.34241,-190.89536)"><path
     id="path3"
     d="m 308.68211,120.837 v 40.33801 h -5.996 c -1.647,0.001 -2.988,-1.352 -2.988,-2.994 V 106.202 l 3.861,-5.143 c 0.657,-0.873 2.09,-1.589 3.183,-1.589 h 7.923 c 1.094,0 2.891,0 3.978,0 h 7.923 c 1.094,0 2.526,0.716 3.184,1.589 l 3.86,5.143 h 45.13801 c 1.642,0 2.981,1.341 2.981,2.982 v 11.653 h -39.13401 l -3.86,-5.143 c -0.658,-0.873 -2.09,-1.588 -3.184,-1.588 h -7.923 c -1.094,0 -2.884,0 -3.978,0 h -7.923 c -1.094,0 -2.526,0.716 -3.184,1.588 l -3.861,5.143 z"
     inkscape:connector-curvature="0"
     style="fill:#006cb7" /><path
     id="path5"
     d="m 396.71012,135.46 h -45.13001 l -3.868,-5.13 c -0.657,-0.872 -2.09,-1.588 -3.177,-1.588 h -7.923 c -1.094,0 -2.884,0 -3.984,0 h -7.917 c -1.094,0 -2.526,0.716 -3.184,1.588 l -3.861,5.13 v 51.991 c 0,1.642 1.341,2.981 2.975,2.981 h 76.06801 c 1.647,0 2.988,-1.341 2.988,-2.981 v -48.997 c 0.001,-1.653 -1.34,-2.994 -2.987,-2.994 z"
     inkscape:connector-curvature="0"
     style="fill:#d81920" /></g></svg>
