<?xml version="1.0" encoding="UTF-8" standalone="no"?>
<!-- Generator: Adobe Illustrator 15.0.2, SVG Export Plug-In . SVG Version: 6.00 Build 0)  -->

<svg
   version="1.1"
   id="Layer_1"
   x="0px"
   y="0px"
   width="256"
   height="256"
   viewBox="0 0 256 256.00002"
   enable-background="new 0 0 363 227"
   xml:space="preserve"
   inkscape:version="1.2.2 (732a01da63, 2022-12-09)"
   sodipodi:docname="favicon.svg"
   inkscape:export-filename="favicon.png"
   inkscape:export-xdpi="192"
   inkscape:export-ydpi="192"
   xmlns:inkscape="http://www.inkscape.org/namespaces/inkscape"
   xmlns:sodipodi="http://sodipodi.sourceforge.net/DTD/sodipodi-0.dtd"
   xmlns="http://www.w3.org/2000/svg"
   xmlns:svg="http://www.w3.org/2000/svg"
   xmlns:rdf="http://www.w3.org/1999/02/22-rdf-syntax-ns#"
   xmlns:cc="http://creativecommons.org/ns#"
   xmlns:dc="http://purl.org/dc/elements/1.1/"><metadata
   id="metadata3108"><rdf:RDF><cc:Work
       rdf:about=""><dc:format>image/svg+xml</dc:format><dc:type
         rdf:resource="http://purl.org/dc/dcmitype/StillImage" /><dc:title /></cc:Work></rdf:RDF></metadata><defs
   id="defs3106" /><sodipodi:namedview
   pagecolor="#ffffff"
   bordercolor="#666666"
   borderopacity="1"
   objecttolerance="10"
   gridtolerance="10"
   guidetolerance="10"
   inkscape:pageopacity="0"
   inkscape:pageshadow="2"
   inkscape:window-width="3440"
   inkscape:window-height="1414"
   id="namedview3104"
   showgrid="false"
   fit-margin-top="0"
   fit-margin-left="0"
   fit-margin-right="0"
   fit-margin-bottom="0"
   inkscape:zoom="3.7539062"
   inkscape:cx="122.13944"
   inkscape:cy="128.26639"
   inkscape:window-x="-9"
   inkscape:window-y="-9"
   inkscape:window-maximized="1"
   inkscape:current-layer="Layer_1"
   showguides="true"
   inkscape:guide-bbox="true"
   units="px"
   inkscape:showpageshadow="2"
   inkscape:pagecheckerboard="0"
   inkscape:deskcolor="#d1d1d1" />























<g
   id="g2997"
   transform="matrix(3.9166667,0,0,3.9166667,-43.467475,-121.88254)"><path
     sodipodi:nodetypes="ccccc"
     id="path6"
     d="m 13.778927,84.425342 17.378127,6.87446 0,-48.124929 -17.378127,-6.875077 z"
     inkscape:connector-curvature="0"
     style="fill:#2b58a3;fill-opacity:1" /><polygon
     transform="matrix(0.62500005,0,0,0.61815119,13.778927,36.299796)"
     id="polygon8"
     points="96,11.122 68.195,0 68.195,77.854 96,88.975 "
     style="fill:#de0029;fill-opacity:1" /><polygon
     transform="matrix(0.62500005,0,0,0.61815119,13.778927,36.299796)"
     id="polygon10"
     points="31.317,11.122 31.317,88.975 64.683,77.854 64.683,0 "
     style="fill:#f9f400;fill-opacity:1" /><path
     id="path3-1"
     d="m 44.35144,56.35228 c -2.781201,0.919651 -5.035348,3.919165 -5.035348,6.700367 0,2.157768 1.363032,3.532338 3.270038,3.619751 l 0.50651,1.370789 1.2588,3.415289 1.258805,-4.247776 0.506651,-1.705808 c 1.905946,-1.348231 3.269886,-3.624519 3.269886,-5.782287 1.6e-4,-2.781256 -2.25596,-4.289376 -5.035342,-3.370325 z m -0.08354,6.573585 c -0.834011,0.27578 -1.51062,-0.177093 -1.51062,-1.011104 0,-0.834011 0.676609,-1.734355 1.51062,-2.010135 0.834012,-0.275779 1.510612,0.177103 1.510612,1.011114 0,0.834011 -0.6766,1.734346 -1.510612,2.010125 z"
     inkscape:connector-curvature="0" /></g></svg>
