<?xml version="1.0" encoding="UTF-8" standalone="no"?>
<!-- Generator: Adobe Illustrator 15.0.2, SVG Export Plug-In . SVG Version: 6.00 Build 0)  -->

<svg
   version="1.1"
   id="Layer_1"
   x="0px"
   y="0px"
   width="256"
   height="256"
   viewBox="0 0 256 256.00002"
   enable-background="new 0 0 363 227"
   xml:space="preserve"
   inkscape:version="1.2.1 (9c6d41e410, 2022-07-14)"
   sodipodi:docname="favicon.svg"
   inkscape:export-filename="favicon.png"
   inkscape:export-xdpi="192"
   inkscape:export-ydpi="192"
   xmlns:inkscape="http://www.inkscape.org/namespaces/inkscape"
   xmlns:sodipodi="http://sodipodi.sourceforge.net/DTD/sodipodi-0.dtd"
   xmlns="http://www.w3.org/2000/svg"
   xmlns:svg="http://www.w3.org/2000/svg"
   xmlns:rdf="http://www.w3.org/1999/02/22-rdf-syntax-ns#"
   xmlns:cc="http://creativecommons.org/ns#"
   xmlns:dc="http://purl.org/dc/elements/1.1/"><metadata
   id="metadata3108"><rdf:RDF><cc:Work
       rdf:about=""><dc:format>image/svg+xml</dc:format><dc:type
         rdf:resource="http://purl.org/dc/dcmitype/StillImage" /><dc:title /></cc:Work></rdf:RDF></metadata><defs
   id="defs3106" /><sodipodi:namedview
   pagecolor="#ffffff"
   bordercolor="#666666"
   borderopacity="1"
   objecttolerance="10"
   gridtolerance="10"
   guidetolerance="10"
   inkscape:pageopacity="0"
   inkscape:pageshadow="2"
   inkscape:window-width="1920"
   inkscape:window-height="1177"
   id="namedview3104"
   showgrid="false"
   fit-margin-top="0"
   fit-margin-left="0"
   fit-margin-right="0"
   fit-margin-bottom="0"
   inkscape:zoom="1.8730469"
   inkscape:cx="-58.994785"
   inkscape:cy="105.17622"
   inkscape:window-x="-8"
   inkscape:window-y="-8"
   inkscape:window-maximized="1"
   inkscape:current-layer="Layer_1"
   showguides="true"
   inkscape:guide-bbox="true"
   units="px"
   inkscape:showpageshadow="2"
   inkscape:pagecheckerboard="0"
   inkscape:deskcolor="#d1d1d1" />























<g
   id="g4567"
   transform="matrix(8.2002986,0,0,8.0546205,-101.52896,-88.927532)"><path
     id="path3718"
     style="fill:#006cb7;fill-opacity:1;fill-rule:nonzero;stroke:none;stroke-width:0.110029"
     d="m 37.011719,13.294922 c -0.176662,0.0071 -0.353357,0.0265 -0.529297,0.05859 -1.748135,0.318849 -3.005988,1.764028 -3.201172,3.443359 -0.08161,0.967349 -0.525393,2.151788 -1.144531,2.865234 l -1.171875,1.371094 c -0.07275,0.06064 -0.140237,0.127611 -0.201172,0.205078 l -2.998047,3.533203 1.859375,2.019532 3.294922,-3.855469 c 0.03308,-0.04205 0.06438,-0.08636 0.0918,-0.130859 0.845478,-0.976827 1.039706,-1.151226 1.826172,-1.498047 0.735557,-0.323944 2.216886,-0.153446 2.767578,-0.216797 1.916222,0.02729 2.987311,-1.598027 3.246093,-2.476563 l -3.152343,0.576172 -1.890625,-1.685547 1.214844,-2.296875 3.101562,-0.574219 c -0.659825,-0.844595 -1.876652,-1.387421 -3.113281,-1.33789 z m -10.898438,13.414062 -3.607422,4.220704 c -0.0334,0.04246 -0.06026,0.08591 -0.08789,0.130859 -0.84501,0.976263 -1.041824,1.151298 -1.828125,1.498047 -0.735557,0.323943 -2.216887,0.153445 -2.767578,0.216797 -1.916222,-0.0273 -2.987311,1.596076 -3.246094,2.474609 l 3.152344,-0.574219 1.890625,1.683594 -1.212891,2.298828 -3.103516,0.574219 c 0.754086,0.965252 2.237012,1.534066 3.644532,1.277344 1.748135,-0.318851 3.005988,-1.762072 3.201172,-3.441407 0.08161,-0.967349 0.525392,-2.151787 1.144531,-2.865234 l 1.169922,-1.371094 c 0.07275,-0.06064 0.142191,-0.127609 0.203125,-0.205078 l 3.304687,-3.896484 z" /><g
     id="g4071"
     transform="matrix(0.04569978,-0.04203034,0.04203034,0.04569978,-6.9303608,23.327849)"><path
       d="m 304.38529,541.56548 h 141.65506 c 5.38689,0 9.75673,-4.31064 9.75673,-9.62322 0,-5.31258 -4.37454,-9.6232 -9.75673,-9.6232 l -58.53766,-0.0122 0.21962,-382.0064 c 0,-5.70082 -6.50781,-10.30168 -12.28859,-10.30168 -5.78534,0 -12.2888,4.62513 -12.292,10.32595 l -0.21462,382.0064 -58.53858,-0.0121 c -5.38688,-10e-4 -9.76587,4.31062 -9.76587,9.6232 0,5.30819 4.38368,9.62322 9.76587,9.62322 z"
       id="path3093"
       style="fill:#d81920;fill-opacity:1;stroke-width:1.16405"
       sodipodi:nodetypes="csssccsscsscc" /><path
       d="M 456.88121,548.9731 H 295.89418 L 260.383,617.17924 h 229.65373 z"
       id="path3095"
       style="fill:#d81920;fill-opacity:1;stroke-width:1.14325"
       sodipodi:nodetypes="ccccc" /></g></g></svg>
