<?xml version="1.0" encoding="UTF-8" standalone="no"?>
<!-- Generator: Adobe Illustrator 15.0.2, SVG Export Plug-In . SVG Version: 6.00 Build 0)  -->

<svg
   version="1.1"
   id="Layer_1"
   x="0px"
   y="0px"
   width="1500"
   height="950"
   viewBox="0 0 1500 950.00008"
   enable-background="new 0 0 363 227"
   xml:space="preserve"
   inkscape:version="1.2.1 (9c6d41e410, 2022-07-14)"
   sodipodi:docname="logo-with-text-alternative.svg"
   inkscape:export-filename="logo-with-text-alternative.png"
   inkscape:export-xdpi="12.992"
   inkscape:export-ydpi="12.992"
   xmlns:inkscape="http://www.inkscape.org/namespaces/inkscape"
   xmlns:sodipodi="http://sodipodi.sourceforge.net/DTD/sodipodi-0.dtd"
   xmlns="http://www.w3.org/2000/svg"
   xmlns:svg="http://www.w3.org/2000/svg"
   xmlns:rdf="http://www.w3.org/1999/02/22-rdf-syntax-ns#"
   xmlns:cc="http://creativecommons.org/ns#"
   xmlns:dc="http://purl.org/dc/elements/1.1/"><metadata
   id="metadata3108"><rdf:RDF><cc:Work
       rdf:about=""><dc:format>image/svg+xml</dc:format><dc:type
         rdf:resource="http://purl.org/dc/dcmitype/StillImage" /></cc:Work></rdf:RDF></metadata><defs
   id="defs3106" /><sodipodi:namedview
   pagecolor="#ffffff"
   bordercolor="#666666"
   borderopacity="1"
   objecttolerance="10"
   gridtolerance="10"
   guidetolerance="10"
   inkscape:pageopacity="0"
   inkscape:pageshadow="2"
   inkscape:window-width="1920"
   inkscape:window-height="1177"
   id="namedview3104"
   showgrid="false"
   fit-margin-top="0"
   fit-margin-left="0"
   fit-margin-right="0"
   fit-margin-bottom="0"
   inkscape:zoom="0.34797196"
   inkscape:cx="566.13758"
   inkscape:cy="666.72039"
   inkscape:window-x="-8"
   inkscape:window-y="-8"
   inkscape:window-maximized="1"
   inkscape:current-layer="Layer_1"
   showguides="true"
   inkscape:guide-bbox="true"
   units="px"
   inkscape:showpageshadow="2"
   inkscape:pagecheckerboard="0"
   inkscape:deskcolor="#d1d1d1" />
<g
   aria-label="Klarschiff.HRO"
   id="text858"
   style="font-weight:bold;font-size:192px;line-height:1.25;font-family:'PT Sans';-inkscape-font-specification:'PT Sans Bold';letter-spacing:0px;word-spacing:0px"
   transform="matrix(1.2828408,0,0,1.2833669,-77.45086,46.645811)"><path
     d="m 93.590511,643.79793 h -6.912 v 57.408 h -26.304 v -134.4 h 26.304 v 59.52 l 6.144,-2.688 37.055999,-56.832 h 29.952 l -39.168,56.448 -10.368,7.296 10.752,7.488 44.736,63.168 h -32.448 z"
     id="path860" /><path
     d="m 204.56667,668.94993 q 0,6.72 1.728,9.792 1.728,3.072 5.568,3.072 2.304,0 4.416,-0.384 2.304,-0.384 5.568,-1.728 l 2.688,19.584 q -3.072,1.536 -9.408,3.072 -6.336,1.536 -13.056,1.536 -10.944,0 -16.704,-4.992 -5.76,-5.184 -5.76,-16.896 v -115.2 h 24.96 z"
     id="path862" /><path
     d="m 234.71079,610.77393 q 7.68,-3.456 18.24,-5.376 10.56,-2.112 22.08,-2.112 9.984,0 16.704,2.496 6.72,2.304 10.56,6.72 4.032,4.416 5.568,10.56 1.728,6.144 1.728,13.824 0,8.448 -0.576,17.088 -0.576,8.448 -0.768,16.704 0,8.256 0.576,16.128 0.576,7.68 2.88,14.592 h -20.352 l -4.032,-13.248 h -0.96 q -3.84,5.952 -10.752,10.368 -6.72,4.224 -17.472,4.224 -6.72,0 -12.096,-1.92 -5.376,-2.112 -9.216,-5.76 -3.84,-3.84 -5.952,-8.832 -2.112,-5.184 -2.112,-11.52 0,-8.832 3.84,-14.784 4.032,-6.144 11.328,-9.792 7.488,-3.84 17.664,-5.184 10.368,-1.536 23.04,-0.96 1.344,-10.752 -1.536,-15.36 -2.88,-4.8 -12.864,-4.8 -7.488,0 -15.936,1.536 -8.256,1.536 -13.632,4.032 z m 31.68,71.424 q 7.488,0 11.904,-3.264 4.416,-3.456 6.528,-7.296 v -12.48 q -5.952,-0.576 -11.52,-0.192 -5.376,0.384 -9.6,1.728 -4.224,1.344 -6.72,3.84 -2.496,2.496 -2.496,6.336 0,5.376 3.072,8.448 3.264,2.88 8.832,2.88 z"
     id="path864" /><path
     d="m 383.51085,628.62993 q -5.952,-2.112 -10.752,-2.112 -6.72,0 -11.328,3.648 -4.416,3.456 -5.952,9.024 v 62.016 h -24.96 v -96 h 19.392 l 2.88,12.672 h 0.768 q 3.264,-7.104 8.832,-10.944 5.568,-3.84 13.056,-3.84 4.992,0 11.328,2.112 z"
     id="path866" /><path
     d="m 437.65482,674.70993 q 0,-3.84 -3.264,-6.144 -3.264,-2.304 -8.064,-4.224 -4.8,-1.92 -10.56,-3.84 -5.76,-2.112 -10.56,-5.568 -4.8,-3.648 -8.064,-9.024 -3.264,-5.568 -3.264,-14.208 0,-14.208 8.448,-21.696 8.448,-7.488 24.384,-7.488 10.944,0 19.776,2.304 8.832,2.304 13.824,5.184 l -5.568,18.048 q -4.416,-1.728 -11.136,-3.648 -6.72,-1.92 -13.632,-1.92 -11.136,0 -11.136,8.64 0,3.456 3.264,5.568 3.264,2.112 8.064,4.032 4.8,1.728 10.56,3.84 5.76,2.112 10.56,5.568 4.8,3.264 8.064,8.64 3.264,5.376 3.264,13.824 0,14.592 -9.408,23.04 -9.216,8.256 -27.84,8.256 -10.176,0 -19.2,-2.688 -8.832,-2.496 -14.4,-5.952 l 6.912,-18.624 q 4.416,2.496 11.712,4.992 7.296,2.304 14.976,2.304 5.568,0 8.832,-2.112 3.456,-2.112 3.456,-7.104 z"
     id="path868" /><path
     d="m 546.90299,695.25393 q -5.76,4.224 -14.016,6.336 -8.064,2.304 -16.704,2.304 -11.52,0 -19.584,-3.648 -7.872,-3.648 -12.864,-10.176 -4.992,-6.72 -7.296,-16.128 -2.112,-9.408 -2.112,-20.736 0,-24.384 10.944,-37.44 10.944,-13.248 31.872,-13.248 10.56,0 16.896,1.728 6.528,1.728 11.712,4.416 l -5.952,20.352 q -4.416,-2.112 -8.832,-3.264 -4.224,-1.152 -9.792,-1.152 -10.368,0 -15.744,6.912 -5.376,6.72 -5.376,21.696 0,6.144 1.344,11.328 1.344,5.184 4.032,9.024 2.688,3.84 6.912,6.144 4.416,2.112 10.176,2.112 6.336,0 10.752,-1.536 4.416,-1.728 7.872,-4.032 z"
     id="path870" /><path
     d="m 620.82309,701.20593 v -54.528 q 0,-11.712 -3.264,-16.896 -3.264,-5.184 -11.904,-5.184 -6.336,0 -11.712,4.416 -5.184,4.224 -6.912,10.944 v 61.248 h -24.96 v -134.4 h 24.96 v 49.152 h 0.768 q 4.608,-6.144 11.328,-9.792 6.72,-3.648 17.088,-3.648 7.296,0 12.864,1.92 5.568,1.92 9.216,6.336 3.84,4.416 5.568,12.096 1.92,7.488 1.92,18.624 v 59.712 z"
     id="path872" /><path
     d="m 668.82311,605.20593 h 24.96 v 96 h -24.96 z m -3.648,-27.072 q 0,-5.568 4.032,-9.408 4.224,-4.032 11.52,-4.032 7.296,0 11.712,4.032 4.608,3.84 4.608,9.408 0,5.568 -4.608,9.408 -4.416,3.648 -11.712,3.648 -7.296,0 -11.52,-3.648 -4.032,-3.84 -4.032,-9.408 z"
     id="path874" /><path
     d="m 709.52694,605.20593 h 13.248 v -5.376 q 0,-18.24 7.68,-26.304 7.68,-8.256 22.272,-8.256 15.36,0 25.536,3.648 l -4.8,19.968 q -4.416,-1.536 -7.872,-1.92 -3.264,-0.576 -6.912,-0.576 -3.84,0 -6.144,1.152 -2.112,1.152 -3.264,3.648 -0.96,2.304 -1.344,5.952 -0.192,3.456 -0.192,8.064 h 21.12 v 21.12 h -21.12 v 74.88 h -24.96 v -74.88 h -13.248 z"
     id="path876" /><path
     d="m 771.15877,605.20593 h 13.248 v -5.376 q 0,-18.24 7.68,-26.304 7.68,-8.256 22.272,-8.256 15.36,0 25.536,3.648 l -4.8,19.968 q -4.416,-1.536 -7.872,-1.92 -3.264,-0.576 -6.912,-0.576 -3.84,0 -6.144,1.152 -2.112,1.152 -3.264,3.648 -0.96,2.304 -1.344,5.952 -0.192,3.456 -0.192,8.064 h 21.12 v 21.12 h -21.12 v 74.88 h -24.96 v -74.88 h -13.248 z"
     id="path878" /><path
     d="m 834.90252,688.53393 q 0,-6.72 4.224,-10.56 4.224,-4.032 11.136,-4.032 7.296,0 11.52,4.032 4.224,3.84 4.224,10.56 0,6.72 -4.224,10.752 -4.224,4.032 -11.52,4.032 -6.912,0 -11.136,-4.032 -4.224,-4.032 -4.224,-10.752 z"
     id="path880" /><path
     d="m 961.04658,644.94993 h -49.152 v 56.256 h -26.304 v -134.4 h 26.304 v 54.72 h 49.152 v -54.72 h 26.304 v 134.4 h -26.304 z"
     id="path882" /><path
     d="m 1010.5828,568.14993 q 4.416,-0.768 9.408,-1.344 5.184,-0.768 10.176,-1.152 5.184,-0.384 9.984,-0.576 4.8,-0.192 8.832,-0.192 9.408,0 18.432,1.728 9.216,1.728 16.32,5.952 7.296,4.224 11.52,11.712 4.416,7.296 4.416,18.432 0,16.512 -7.68,26.88 -7.68,10.368 -20.544,14.4 l 9.408,5.952 30.72,51.264 h -30.336 l -30.528,-52.608 -13.824,-2.496 v 55.104 h -26.304 z m 40.32,20.16 q -4.032,0 -8.064,0.192 -3.84,0.192 -5.952,0.768 v 38.976 h 11.136 q 10.944,0 17.472,-4.992 6.528,-4.992 6.528,-16.512 0,-8.64 -5.376,-13.44 -5.376,-4.992 -15.744,-4.992 z"
     id="path884" /><path
     d="m 1115.6064,634.00593 q 0,-33.6 14.784,-51.648 14.784,-18.24 42.24,-18.24 14.4,0 25.152,4.992 10.752,4.992 17.856,14.208 7.104,9.216 10.56,22.08 3.456,12.864 3.456,28.608 0,33.6 -14.976,51.84 -14.784,18.048 -42.048,18.048 -14.592,0 -25.344,-4.992 -10.752,-4.992 -17.856,-14.208 -6.912,-9.216 -10.368,-22.08 -3.456,-12.864 -3.456,-28.608 z m 27.648,0 q 0,10.176 1.728,18.816 1.728,8.448 5.184,14.592 3.648,6.144 9.216,9.6 5.568,3.456 13.248,3.456 14.016,0 21.696,-10.944 7.68,-10.944 7.68,-35.52 0,-9.792 -1.728,-18.24 -1.536,-8.448 -4.992,-14.784 -3.456,-6.336 -9.024,-9.792 -5.568,-3.648 -13.632,-3.648 -14.016,0 -21.696,11.328 -7.68,11.136 -7.68,35.136 z"
     id="path886" /></g><g
   id="g4567"
   transform="matrix(27.17937,0,0,26.707479,-10.759199,-354.5499)"><path
     id="path3718"
     style="fill:#006cb7;fill-opacity:1;fill-rule:nonzero;stroke:none;stroke-width:0.110029"
     d="m 37.011719,13.294922 c -0.176662,0.0071 -0.353357,0.0265 -0.529297,0.05859 -1.748135,0.318849 -3.005988,1.764028 -3.201172,3.443359 -0.08161,0.967349 -0.525393,2.151788 -1.144531,2.865234 l -1.171875,1.371094 c -0.07275,0.06064 -0.140237,0.127611 -0.201172,0.205078 l -2.998047,3.533203 1.859375,2.019532 3.294922,-3.855469 c 0.03308,-0.04205 0.06438,-0.08636 0.0918,-0.130859 0.845478,-0.976827 1.039706,-1.151226 1.826172,-1.498047 0.735557,-0.323944 2.216886,-0.153446 2.767578,-0.216797 1.916222,0.02729 2.987311,-1.598027 3.246093,-2.476563 l -3.152343,0.576172 -1.890625,-1.685547 1.214844,-2.296875 3.101562,-0.574219 c -0.659825,-0.844595 -1.876652,-1.387421 -3.113281,-1.33789 z m -10.898438,13.414062 -3.607422,4.220704 c -0.0334,0.04246 -0.06026,0.08591 -0.08789,0.130859 -0.84501,0.976263 -1.041824,1.151298 -1.828125,1.498047 -0.735557,0.323943 -2.216887,0.153445 -2.767578,0.216797 -1.916222,-0.0273 -2.987311,1.596076 -3.246094,2.474609 l 3.152344,-0.574219 1.890625,1.683594 -1.212891,2.298828 -3.103516,0.574219 c 0.754086,0.965252 2.237012,1.534066 3.644532,1.277344 1.748135,-0.318851 3.005988,-1.762072 3.201172,-3.441407 0.08161,-0.967349 0.525392,-2.151787 1.144531,-2.865234 l 1.169922,-1.371094 c 0.07275,-0.06064 0.142191,-0.127609 0.203125,-0.205078 l 3.304687,-3.896484 z" /><g
     id="g4071"
     transform="matrix(0.04569978,-0.04203034,0.04203034,0.04569978,-6.9303608,23.327849)"><path
       d="m 304.38529,541.56548 h 141.65506 c 5.38689,0 9.75673,-4.31064 9.75673,-9.62322 0,-5.31258 -4.37454,-9.6232 -9.75673,-9.6232 l -58.53766,-0.0122 0.21962,-382.0064 c 0,-5.70082 -6.50781,-10.30168 -12.28859,-10.30168 -5.78534,0 -12.2888,4.62513 -12.292,10.32595 l -0.21462,382.0064 -58.53858,-0.0121 c -5.38688,-10e-4 -9.76587,4.31062 -9.76587,9.6232 0,5.30819 4.38368,9.62322 9.76587,9.62322 z"
       id="path3093"
       style="fill:#d81920;fill-opacity:1;stroke-width:1.16405"
       sodipodi:nodetypes="csssccsscsscc" /><path
       d="M 456.88121,548.9731 H 295.89418 L 260.383,617.17924 h 229.65373 z"
       id="path3095"
       style="fill:#d81920;fill-opacity:1;stroke-width:1.14325"
       sodipodi:nodetypes="ccccc" /></g></g></svg>
